<?xml version="1.0" encoding="UTF-8"?>
<svg id="a" data-name="Layer 1" xmlns="http://www.w3.org/2000/svg" width="53.004" height="11.121" viewBox="0 0 53.004 11.121">
  <g>
    <path d="M11.5,7.829h-.328c-2.003,0-2.808-2.251-3.518-4.238-.539-1.505-1.047-2.927-1.904-2.927s-1.365,1.422-1.904,2.928c-.71,1.985-1.516,4.237-3.517,4.237h-.328v-.665h.328c1.542,0,2.233-1.931,2.901-3.799.619-1.731,1.204-3.366,2.521-3.366s1.901,1.634,2.52,3.365c.668,1.868,1.359,3.799,2.902,3.799h.328v.665Z" fill="#8ce1f0"/>
    <path d="M11.5,9.465h-.328c-2.487,0-3.347-1.536-3.975-2.658-.488-.872-.797-1.365-1.447-1.365s-.958.493-1.445,1.365c-.627,1.122-1.486,2.659-3.977,2.659h-.328v-.665h.328c2.108,0,2.767-1.18,3.406-2.321.468-.837.951-1.702,2.016-1.702s1.549.866,2.018,1.703c.639,1.141,1.299,2.321,3.404,2.321h.328v.665Z" fill="#64c8f1"/>
    <path d="M11.5,11h-.328c-2.099,0-2.947-.66-3.629-1.19-.516-.402-.923-.719-1.793-.719s-1.271.316-1.781.715c-.678.531-1.523,1.193-3.641,1.193h-.328v-.665h.328c1.893,0,2.578-.536,3.239-1.054.537-.42,1.091-.854,2.183-.854s1.652.435,2.193.856c.665.517,1.353,1.052,3.228,1.052h.328v.665Z" fill="#32abf6"/>
  </g>
  <g>
    <path d="M17.798,3.138h.963l2.289,5.999h-.844l-.558-1.513h-2.754l-.557,1.513h-.836l2.298-5.999ZM19.412,6.973l-1.141-3.117-1.141,3.117h2.281Z"/>
    <path d="M21.506,6.982c0-1.309.777-2.213,2.036-2.213,1.174,0,1.985.828,1.985,2.137,0,.076,0,.177-.016.287h-3.253c.043.828.507,1.462,1.352,1.462.608,0,1.014-.313,1.123-.845h.735c-.101.837-.853,1.436-1.892,1.436-1.267,0-2.07-.921-2.07-2.264ZM22.275,6.601h2.484c-.059-.811-.507-1.258-1.208-1.258-.836,0-1.208.608-1.276,1.258Z"/>
    <path d="M27.274,7.599c-.143.101-.202.228-.202.371,0,.262.211.465.634.507l1.09.101c.786.076,1.546.322,1.546,1.116s-.786,1.427-2.222,1.427c-1.301,0-2.044-.523-2.044-1.233,0-.499.304-.871.828-1.048-.304-.178-.473-.431-.473-.752,0-.295.143-.549.464-.727-.312-.262-.498-.634-.498-1.09,0-.938.777-1.504,1.765-1.504.279,0,.439.034.592.059.245.034.608.05,1.47.05v.532c-.481,0-.676-.017-.82-.076.296.245.49.592.49,1.023,0,.844-.718,1.419-1.723,1.419-.33,0-.634-.059-.896-.177ZM28.204,10.556c.895,0,1.377-.321,1.377-.778,0-.397-.346-.541-.946-.6l-.82-.076c-.143-.017-.278-.034-.397-.067-.388.143-.608.422-.608.743,0,.431.388.778,1.394.778ZM29.175,6.264c0-.6-.464-.93-1.014-.93s-1.014.33-1.014.93c0,.608.482.946,1.014.946.55,0,1.014-.329,1.014-.946Z"/>
    <path d="M31.076,3.121h.751v.971h-.751v-.971ZM31.093,4.878h.744v4.258h-.744v-4.258Z"/>
    <path d="M32.807,7.818h.735c.11.583.465.836,1.057.836.583,0,.997-.203.997-.651,0-.523-.465-.616-1.208-.735-.828-.135-1.436-.473-1.436-1.225,0-.786.718-1.276,1.648-1.276.904,0,1.622.388,1.664,1.284h-.735c-.085-.566-.456-.701-.929-.701-.524,0-.921.22-.921.634,0,.43.422.541,1.081.659.912.16,1.579.422,1.579,1.276,0,.862-.709,1.335-1.74,1.335-1.057,0-1.741-.541-1.792-1.436Z"/>
    <path d="M37.04,7.007c0-1.343.802-2.238,2.112-2.238s2.121.887,2.121,2.238c0,1.36-.811,2.238-2.121,2.238s-2.112-.878-2.112-2.238ZM40.512,7.007c0-1.014-.524-1.614-1.352-1.614-.862,0-1.369.608-1.369,1.614s.516,1.614,1.369,1.614c.828,0,1.352-.6,1.352-1.614Z"/>
    <path d="M42.268,4.878h.692v.693c.262-.507.82-.802,1.479-.802.971,0,1.58.515,1.58,1.757v2.61h-.736v-2.492c0-.879-.329-1.234-1.039-1.234-.744,0-1.242.515-1.242,1.301v2.424h-.735v-4.258Z"/>
    <path d="M47.286,3.121h.751v.971h-.751v-.971ZM47.302,4.878h.744v4.258h-.744v-4.258Z"/>
    <path d="M49.059,6.999c0-1.335.794-2.23,2.044-2.23,1.064,0,1.783.541,1.901,1.555h-.752c-.118-.592-.499-.93-1.149-.93-.811,0-1.284.643-1.284,1.606,0,.988.507,1.63,1.292,1.63.667,0,1.056-.414,1.141-1.006h.752c-.093.989-.845,1.622-1.867,1.622-1.276,0-2.078-.912-2.078-2.247Z"/>
  </g>
</svg>