<?xml version="1.0" encoding="UTF-8"?>
<svg id="a" data-name="Layer 1" xmlns="http://www.w3.org/2000/svg" width="11.5" height="11" viewBox="0 0 11.5 11">
  <path d="M11.5,7.829h-.328c-2.003,0-2.808-2.251-3.518-4.238-.539-1.505-1.047-2.927-1.904-2.927s-1.365,1.422-1.904,2.928c-.71,1.985-1.516,4.237-3.517,4.237h-.328v-.665h.328c1.542,0,2.233-1.931,2.901-3.799.619-1.731,1.204-3.366,2.521-3.366s1.901,1.634,2.52,3.365c.668,1.868,1.359,3.799,2.902,3.799h.328v.665Z" fill="#8ce1f0"/>
  <path d="M11.5,9.465h-.328c-2.487,0-3.347-1.536-3.975-2.658-.488-.872-.797-1.365-1.447-1.365s-.958.493-1.445,1.365c-.627,1.122-1.486,2.659-3.977,2.659h-.328v-.665h.328c2.108,0,2.767-1.18,3.406-2.321.468-.837.951-1.702,2.016-1.702s1.549.866,2.018,1.703c.639,1.141,1.299,2.321,3.404,2.321h.328v.665Z" fill="#64c8f1"/>
  <path d="M11.5,11h-.328c-2.099,0-2.947-.66-3.629-1.19-.516-.402-.923-.719-1.793-.719s-1.271.316-1.781.715c-.678.531-1.523,1.193-3.641,1.193h-.328v-.665h.328c1.893,0,2.578-.536,3.239-1.054.537-.42,1.091-.854,2.183-.854s1.652.435,2.193.856c.665.517,1.353,1.052,3.228,1.052h.328v.665Z" fill="#32abf6"/>
</svg>